<svg width="26" height="26" viewBox="0 0 26 26" fill="none" xmlns="http://www.w3.org/2000/svg">
<path d="M22.7502 13C22.7502 13.2155 22.6645 13.4221 22.5122 13.5745C22.3598 13.7269 22.1531 13.8125 21.9377 13.8125H6.02382L11.95 19.7376C12.0255 19.8131 12.0854 19.9027 12.1262 20.0014C12.1671 20.1 12.1881 20.2057 12.1881 20.3125C12.1881 20.4192 12.1671 20.5249 12.1262 20.6236C12.0854 20.7222 12.0255 20.8118 11.95 20.8873C11.8745 20.9628 11.7849 21.0227 11.6863 21.0635C11.5876 21.1044 11.4819 21.1254 11.3752 21.1254C11.2684 21.1254 11.1627 21.1044 11.064 21.0635C10.9654 21.0227 10.8758 20.9628 10.8003 20.8873L3.48781 13.5748C3.41226 13.4993 3.35233 13.4097 3.31145 13.3111C3.27056 13.2125 3.24951 13.1067 3.24951 13C3.24951 12.8932 3.27056 12.7875 3.31145 12.6888C3.35233 12.5902 3.41226 12.5006 3.48781 12.4251L10.8003 5.11262C10.9528 4.96016 11.1595 4.87451 11.3752 4.87451C11.5908 4.87451 11.7975 4.96016 11.95 5.11262C12.1025 5.26508 12.1881 5.47186 12.1881 5.68746C12.1881 5.90307 12.1025 6.10985 11.95 6.26231L6.02382 12.1875H21.9377C22.1531 12.1875 22.3598 12.2731 22.5122 12.4254C22.6645 12.5778 22.7502 12.7845 22.7502 13Z" fill="white"/>
</svg>
