<svg width="165" height="165" viewBox="0 0 165 165" fill="none" xmlns="http://www.w3.org/2000/svg">
<path d="M82.5 165C114.205 165 140 139.205 140 107.5C140 92.6145 134.314 79.032 125 68.8105V42.5C125 19.0655 105.934 0 82.5 0C59.0655 0 40.0005 19.0655 40.0005 42.5V68.8095C30.6865 79.032 25 92.6145 25 107.5C25 139.205 50.7945 165 82.5 165ZM90 109.993V120C90 124.142 86.642 127.5 82.5 127.5C78.358 127.5 75 124.142 75 120V109.993C71.966 107.71 70 104.081 70 100C70 93.1075 75.6075 87.5 82.5 87.5C89.3925 87.5 95 93.1075 95 100C95 104.081 93.034 107.71 90 109.993ZM55.0005 42.5C55.0005 27.3365 67.337 15 82.5 15C97.6635 15 110 27.3365 110 42.5V57.0145C101.826 52.544 92.455 50 82.5 50C72.5455 50 63.1745 52.544 55.0005 57.014V42.5Z" fill="#001E62"/>
</svg>
