<svg width="56" height="56" viewBox="0 0 56 56" fill="none" xmlns="http://www.w3.org/2000/svg">
<path d="M50.75 24.5H29.75V19.25H31.5C32.4283 19.25 33.3185 18.8813 33.9749 18.2249C34.6313 17.5685 35 16.6783 35 15.75V8.75C35 7.82174 34.6313 6.9315 33.9749 6.27513C33.3185 5.61875 32.4283 5.25 31.5 5.25H24.5C23.5717 5.25 22.6815 5.61875 22.0251 6.27513C21.3687 6.9315 21 7.82174 21 8.75V15.75C21 16.6783 21.3687 17.5685 22.0251 18.2249C22.6815 18.8813 23.5717 19.25 24.5 19.25H26.25V24.5H5.25C4.78587 24.5 4.34075 24.6844 4.01256 25.0126C3.68437 25.3408 3.5 25.7859 3.5 26.25C3.5 26.7141 3.68437 27.1592 4.01256 27.4874C4.34075 27.8156 4.78587 28 5.25 28H12.25V35H10.5C9.57174 35 8.6815 35.3687 8.02513 36.0251C7.36875 36.6815 7 37.5717 7 38.5V45.5C7 46.4283 7.36875 47.3185 8.02513 47.9749C8.6815 48.6312 9.57174 49 10.5 49H17.5C18.4283 49 19.3185 48.6312 19.9749 47.9749C20.6313 47.3185 21 46.4283 21 45.5V38.5C21 37.5717 20.6313 36.6815 19.9749 36.0251C19.3185 35.3687 18.4283 35 17.5 35H15.75V28H40.25V35H38.5C37.5717 35 36.6815 35.3687 36.0251 36.0251C35.3687 36.6815 35 37.5717 35 38.5V45.5C35 46.4283 35.3687 47.3185 36.0251 47.9749C36.6815 48.6312 37.5717 49 38.5 49H45.5C46.4283 49 47.3185 48.6312 47.9749 47.9749C48.6312 47.3185 49 46.4283 49 45.5V38.5C49 37.5717 48.6312 36.6815 47.9749 36.0251C47.3185 35.3687 46.4283 35 45.5 35H43.75V28H50.75C51.2141 28 51.6592 27.8156 51.9874 27.4874C52.3156 27.1592 52.5 26.7141 52.5 26.25C52.5 25.7859 52.3156 25.3408 51.9874 25.0126C51.6592 24.6844 51.2141 24.5 50.75 24.5ZM24.5 8.75H31.5V15.75H24.5V8.75ZM17.5 45.5H10.5V38.5H17.5V45.5ZM45.5 45.5H38.5V38.5H45.5V45.5Z" fill="#D13851"/>
</svg>
