<svg width="24" height="24" viewBox="0 0 24 24" fill="none" xmlns="http://www.w3.org/2000/svg">
<path d="M20.8472 14.8559L16.4306 12.8769L16.4184 12.8712C16.1892 12.7732 15.939 12.7338 15.6907 12.7567C15.4424 12.7796 15.2037 12.8641 14.9963 13.0025C14.9718 13.0186 14.9484 13.0361 14.9259 13.055L12.6441 15.0003C11.1984 14.2981 9.70595 12.8169 9.00376 11.39L10.9519 9.07342C10.9706 9.04999 10.9884 9.02655 11.0053 9.00124C11.1407 8.79433 11.2229 8.55716 11.2445 8.31084C11.2661 8.06451 11.2264 7.81667 11.1291 7.58936V7.57811L9.14438 3.15405C9.0157 2.85711 8.79444 2.60975 8.51362 2.4489C8.2328 2.28804 7.9075 2.22232 7.58626 2.26155C6.31592 2.42871 5.14986 3.05258 4.30588 4.01664C3.4619 4.98069 2.99771 6.21901 3.00001 7.5003C3.00001 14.944 9.05626 21.0003 16.5 21.0003C17.7813 21.0026 19.0196 20.5384 19.9837 19.6944C20.9477 18.8504 21.5716 17.6844 21.7388 16.414C21.7781 16.0929 21.7125 15.7677 21.5518 15.4869C21.3911 15.2061 21.144 14.9848 20.8472 14.8559ZM16.5 19.5003C13.3185 19.4968 10.2682 18.2314 8.01856 15.9817C5.76888 13.7321 4.50348 10.6818 4.50001 7.5003C4.49648 6.58482 4.82631 5.69936 5.42789 5.00927C6.02947 4.31919 6.86167 3.87167 7.76907 3.7503C7.7687 3.75404 7.7687 3.75781 7.76907 3.76155L9.73782 8.1678L7.80001 10.4872C7.78034 10.5098 7.76247 10.5339 7.74657 10.5594C7.60549 10.7758 7.52273 11.0251 7.5063 11.283C7.48988 11.5409 7.54035 11.7986 7.65282 12.0312C8.5022 13.7684 10.2525 15.5056 12.0084 16.354C12.2428 16.4655 12.502 16.5142 12.7608 16.4955C13.0196 16.4767 13.2692 16.3912 13.485 16.2472C13.5091 16.231 13.5322 16.2134 13.5544 16.1947L15.8334 14.2503L20.2397 16.2237C20.2397 16.2237 20.2472 16.2237 20.25 16.2237C20.1301 17.1324 19.6833 17.9663 18.9931 18.5694C18.3028 19.1724 17.4166 19.5034 16.5 19.5003Z" fill="#001E62"/>
</svg>
