<svg width="56" height="56" viewBox="0 0 56 56" fill="none" xmlns="http://www.w3.org/2000/svg">
<path d="M55.8731 25.5938L52.8106 17.9375C52.5508 17.2897 52.1025 16.7349 51.5237 16.3449C50.9449 15.9548 50.2623 15.7476 49.5644 15.75H42V14C42 13.5359 41.8156 13.0908 41.4874 12.7626C41.1592 12.4344 40.7141 12.25 40.25 12.25H7C6.07174 12.25 5.1815 12.6187 4.52513 13.2751C3.86875 13.9315 3.5 14.8217 3.5 15.75V40.25C3.5 41.1783 3.86875 42.0685 4.52513 42.7249C5.1815 43.3813 6.07174 43.75 7 43.75H10.7188C11.1043 45.2557 11.98 46.5903 13.2078 47.5434C14.4356 48.4964 15.9457 49.0137 17.5 49.0137C19.0543 49.0137 20.5644 48.4964 21.7922 47.5434C23.02 46.5903 23.8957 45.2557 24.2812 43.75H35.2188C35.6043 45.2557 36.48 46.5903 37.7078 47.5434C38.9356 48.4964 40.4457 49.0137 42 49.0137C43.5543 49.0137 45.0644 48.4964 46.2922 47.5434C47.52 46.5903 48.3957 45.2557 48.7812 43.75H52.5C53.4283 43.75 54.3185 43.3813 54.9749 42.7249C55.6312 42.0685 56 41.1783 56 40.25V26.25C56.0006 26.0251 55.9575 25.8022 55.8731 25.5938ZM42 19.25H49.5644L51.6644 24.5H42V19.25ZM7 15.75H38.5V29.75H7V15.75ZM17.5 45.5C16.8078 45.5 16.1311 45.2947 15.5555 44.9101C14.9799 44.5256 14.5313 43.9789 14.2664 43.3394C14.0015 42.6999 13.9322 41.9961 14.0673 41.3172C14.2023 40.6383 14.5356 40.0146 15.0251 39.5251C15.5146 39.0356 16.1383 38.7023 16.8172 38.5673C17.4961 38.4322 18.1999 38.5015 18.8394 38.7664C19.4789 39.0313 20.0256 39.4799 20.4101 40.0555C20.7947 40.6311 21 41.3078 21 42C21 42.9283 20.6313 43.8185 19.9749 44.4749C19.3185 45.1312 18.4283 45.5 17.5 45.5ZM35.2188 40.25H24.2812C23.8957 38.7443 23.02 37.4097 21.7922 36.4566C20.5644 35.5036 19.0543 34.9863 17.5 34.9863C15.9457 34.9863 14.4356 35.5036 13.2078 36.4566C11.98 37.4097 11.1043 38.7443 10.7188 40.25H7V33.25H38.5V35.9428C37.6953 36.4079 36.9909 37.0282 36.4277 37.7675C35.8644 38.5069 35.4535 39.3507 35.2188 40.25ZM42 45.5C41.3078 45.5 40.6311 45.2947 40.0555 44.9101C39.4799 44.5256 39.0313 43.9789 38.7664 43.3394C38.5015 42.6999 38.4322 41.9961 38.5673 41.3172C38.7023 40.6383 39.0356 40.0146 39.5251 39.5251C40.0146 39.0356 40.6383 38.7023 41.3172 38.5673C41.9961 38.4322 42.6999 38.5015 43.3394 38.7664C43.9789 39.0313 44.5256 39.4799 44.9101 40.0555C45.2947 40.6311 45.5 41.3078 45.5 42C45.5 42.9283 45.1312 43.8185 44.4749 44.4749C43.8185 45.1312 42.9283 45.5 42 45.5ZM52.5 40.25H48.7812C48.3911 38.7479 47.5137 37.4177 46.2866 36.4677C45.0595 35.5176 43.5519 35.0015 42 35V28H52.5V40.25Z" fill="#D13851"/>
</svg>
